HIERARCHY
ROOT Hips
{
    OFFSET   0.000000   0.000000   0.000000
    CHANNELS 6 Xposition Yposition Zposition Zrotation Xrotation Yrotation
    JOINT Chest
    {
        OFFSET   0.000000   8.007230   0.000000
        CHANNELS 3 Zrotation Xrotation Yrotation
        JOINT Chest2
        {
            OFFSET   0.000000  22.077100   0.000000
            CHANNELS 3 Zrotation Xrotation Yrotation
            JOINT Neck
            {
                OFFSET   0.000000  23.254700   0.000000
                CHANNELS 3 Zrotation Xrotation Yrotation
                JOINT Head
                {
                    OFFSET   0.000010  14.370000   1.956610
                    CHANNELS 3 Zrotation Xrotation Yrotation
                    End Site
                    {
                        OFFSET   0.000000  19.566000   0.000000
                    }
                }
            }
            JOINT LeftCollar
            {
                OFFSET   3.911900  19.017000  -0.467063
                CHANNELS 3 Zrotation Xrotation Yrotation
                JOINT LeftShoulder
                {
                    OFFSET  10.383700   0.000000   0.000000
                    CHANNELS 3 Zrotation Xrotation Yrotation
                    JOINT LeftElbow
                    {
                        OFFSET  26.662100   0.001671   0.000522
                        CHANNELS 3 Zrotation Xrotation Yrotation
                        JOINT LeftWrist
                        {
                            OFFSET  28.869000   0.000037  -0.000114
                            CHANNELS 3 Zrotation Xrotation Yrotation
                            JOINT LeftFinger0
                            {
                                OFFSET   2.044650  -2.323450   3.252850
                                CHANNELS 3 Zrotation Xrotation Yrotation
                                JOINT LeftFinger01
                                {
                                    OFFSET   3.088140   0.000000   0.000000
                                    CHANNELS 3 Zrotation Xrotation Yrotation
                                    JOINT LeftFinger02
                                    {
                                        OFFSET   2.639460   0.000000   0.000000
                                        CHANNELS 3 Zrotation Xrotation Yrotation
                                        End Site
                                        {
                                            OFFSET   2.582190   0.000000   0.000000
                                        }
                                    }
                                }
                            }
                            JOINT LeftFinger1
                            {
                                OFFSET   8.364480   0.000000   3.252850
                                CHANNELS 3 Zrotation Xrotation Yrotation
                                JOINT LeftFinger11
                                {
                                    OFFSET   4.646930   0.000000   0.000000
                                    CHANNELS 3 Zrotation Xrotation Yrotation
                                    JOINT LeftFinger12
                                    {
                                        OFFSET   2.323470   0.000000   0.000000
                                        CHANNELS 3 Zrotation Xrotation Yrotation
                                        End Site
                                        {
                                            OFFSET   2.273050   0.000000   0.000000
                                        }
                                    }
                                }
                            }
                            JOINT LeftFinger2
                            {
                                OFFSET   8.364490   0.000016   1.078090
                                CHANNELS 3 Zrotation Xrotation Yrotation
                                JOINT LeftFinger21
                                {
                                    OFFSET   5.111620   0.000000   0.000000
                                    CHANNELS 3 Zrotation Xrotation Yrotation
                                    JOINT LeftFinger22
                                    {
                                        OFFSET   2.788150   0.000013   0.000000
                                        CHANNELS 3 Zrotation Xrotation Yrotation
                                        End Site
                                        {
                                            OFFSET   2.727660   0.000000   0.000000
                                        }
                                    }
                                }
                            }
                            JOINT LeftFinger3
                            {
                                OFFSET   7.899780   0.000016  -1.078090
                                CHANNELS 3 Zrotation Xrotation Yrotation
                                JOINT LeftFinger31
                                {
                                    OFFSET   4.646930   0.000000   0.000000
                                    CHANNELS 3 Zrotation Xrotation Yrotation
                                    JOINT LeftFinger32
                                    {
                                        OFFSET   2.323470   0.000000   0.000000
                                        CHANNELS 3 Zrotation Xrotation Yrotation
                                        End Site
                                        {
                                            OFFSET   2.273050   0.000000   0.000000
                                        }
                                    }
                                }
                            }
                            JOINT LeftFinger4
                            {
                                OFFSET   7.435080   0.000000  -3.252850
                                CHANNELS 3 Zrotation Xrotation Yrotation
                                JOINT LeftFinger41
                                {
                                    OFFSET   3.717550   0.000000   0.000000
                                    CHANNELS 3 Zrotation Xrotation Yrotation
                                    JOINT LeftFinger42
                                    {
                                        OFFSET   1.858760   0.000000   0.000000
                                        CHANNELS 3 Zrotation Xrotation Yrotation
                                        End Site
                                        {
                                            OFFSET   1.818440   0.000000   0.000000
                                        }
                                    }
                                }
                            }
                        }
                    }
                }
            }
            JOINT RightCollar
            {
                OFFSET  -3.911900  19.017000  -0.467064
                CHANNELS 3 Zrotation Xrotation Yrotation
                JOINT RightShoulder
                {
                    OFFSET -10.383700   0.000000   0.000000
                    CHANNELS 3 Zrotation Xrotation Yrotation
                    JOINT RightElbow
                    {
                        OFFSET -26.662100   0.001633   0.000260
                        CHANNELS 3 Zrotation Xrotation Yrotation
                        JOINT RightWrist
                        {
                            OFFSET -28.869000  -0.000045  -0.000080
                            CHANNELS 3 Zrotation Xrotation Yrotation
                            JOINT RightFinger0
                            {
                                OFFSET  -2.044660  -2.323490   3.252850
                                CHANNELS 3 Zrotation Xrotation Yrotation
                                JOINT RightFinger01
                                {
                                    OFFSET  -3.088140   0.000000   0.000000
                                    CHANNELS 3 Zrotation Xrotation Yrotation
                                    JOINT RightFinger02
                                    {
                                        OFFSET  -2.639450   0.000000   0.000000
                                        CHANNELS 3 Zrotation Xrotation Yrotation
                                        End Site
                                        {
                                            OFFSET  -2.582190   0.000000   0.000000
                                        }
                                    }
                                }
                            }
                            JOINT RightFinger1
                            {
                                OFFSET  -8.364480   0.000000   3.252850
                                CHANNELS 3 Zrotation Xrotation Yrotation
                                JOINT RightFinger11
                                {
                                    OFFSET  -4.646920   0.000000   0.000000
                                    CHANNELS 3 Zrotation Xrotation Yrotation
                                    JOINT RightFinger12
                                    {
                                        OFFSET  -2.323470   0.000000   0.000000
                                        CHANNELS 3 Zrotation Xrotation Yrotation
                                        End Site
                                        {
                                            OFFSET  -2.273050   0.000000   0.000000
                                        }
                                    }
                                }
                            }
                            JOINT RightFinger2
                            {
                                OFFSET  -8.364480   0.000000   1.078090
                                CHANNELS 3 Zrotation Xrotation Yrotation
                                JOINT RightFinger21
                                {
                                    OFFSET  -5.111610   0.000000   0.000000
                                    CHANNELS 3 Zrotation Xrotation Yrotation
                                    JOINT RightFinger22
                                    {
                                        OFFSET  -2.788160   0.000000   0.000000
                                        CHANNELS 3 Zrotation Xrotation Yrotation
                                        End Site
                                        {
                                            OFFSET  -2.727660   0.000000   0.000000
                                        }
                                    }
                                }
                            }
                            JOINT RightFinger3
                            {
                                OFFSET  -7.899780   0.000000  -1.078090
                                CHANNELS 3 Zrotation Xrotation Yrotation
                                JOINT RightFinger31
                                {
                                    OFFSET  -4.646930   0.000000   0.000000
                                    CHANNELS 3 Zrotation Xrotation Yrotation
                                    JOINT RightFinger32
                                    {
                                        OFFSET  -2.323470   0.000000   0.000000
                                        CHANNELS 3 Zrotation Xrotation Yrotation
                                        End Site
                                        {
                                            OFFSET  -2.273050   0.000000   0.000000
                                        }
                                    }
                                }
                            }
                            JOINT RightFinger4
                            {
                                OFFSET  -7.435090   0.000000  -3.252850
                                CHANNELS 3 Zrotation Xrotation Yrotation
                                JOINT RightFinger41
                                {
                                    OFFSET  -3.717550   0.000000   0.000000
                                    CHANNELS 3 Zrotation Xrotation Yrotation
                                    JOINT RightFinger42
                                    {
                                        OFFSET  -1.858760   0.000000   0.000000
                                        CHANNELS 3 Zrotation Xrotation Yrotation
                                        End Site
                                        {
                                            OFFSET  -1.818440   0.000000   0.000000
                                        }
                                    }
                                }
                            }
                        }
                    }
                }
            }
        }
    }
    JOINT LeftHip
    {
        OFFSET   9.782990   0.000000   0.000000
        CHANNELS 3 Zrotation Xrotation Yrotation
        JOINT LeftKnee
        {
            OFFSET  -0.000063 -41.789100   0.001657
            CHANNELS 3 Zrotation Xrotation Yrotation
            JOINT LeftAnkle
            {
                OFFSET   0.000078 -41.133200  -0.000113
                CHANNELS 3 Zrotation Xrotation Yrotation
                JOINT LeftToe
                {
                    OFFSET   0.000000  -6.358970  14.674500
                    CHANNELS 3 Zrotation Xrotation Yrotation
                    End Site
                    {
                        OFFSET   0.000000   0.000000   3.913200
                    }
                }
            }
        }
    }
    JOINT RightHip
    {
        OFFSET  -9.782990   0.000000   0.000000
        CHANNELS 3 Zrotation Xrotation Yrotation
        JOINT RightKnee
        {
            OFFSET   0.000053 -41.789200   0.000277
            CHANNELS 3 Zrotation Xrotation Yrotation
            JOINT RightAnkle
            {
                OFFSET   0.000030 -41.133200  -0.000150
                CHANNELS 3 Zrotation Xrotation Yrotation
                JOINT RightToe
                {
                    OFFSET   0.000000  -6.358960  14.674500
                    CHANNELS 3 Zrotation Xrotation Yrotation
                    End Site
                    {
                        OFFSET   0.000000   0.000000   3.913200
                    }
                }
            }
        }
    }
}
MOTION
Frames: 6
Frame Time:   0.016667
  0.201727  89.627700  -1.314930  -2.309640  -7.295260  -0.686896   1.435690   2.913870   0.088666   2.872460   5.829050   0.104295   0.413152  -0.027382  -0.004500   0.678761  -0.055493   8.825010  -4.817030   0.328582   2.400260 -76.115600  14.497800   2.929270  -3.271350  -9.217500 -12.190600   7.832090  -6.486660   0.337198  36.738100  26.946400 -54.899200 -31.998000   0.004307   0.004164 -10.996900   0.000194   0.000261 -24.548300   4.467340  -9.677860 -20.394500  -0.005035  -0.004362 -14.276200  -0.004911   0.000460 -27.221300  -0.944591   1.823890 -27.987400   0.000090  -0.004689 -18.639700  -0.002385  -0.003547 -26.867100  -0.932501   1.829660 -26.882100  -0.001584  -0.005391 -17.903500  -0.002734  -0.004113 -28.376200  -0.980736   1.804610 -42.587600  -0.002703   0.010392 -28.363300  -0.002334   0.002939   4.976910  -0.071062   3.931310  72.811300  14.257100  -4.967880  -1.722740  -3.815080  10.474800  -4.970050  -8.599600  -1.536610 -37.945500  24.998400  58.735200  26.720100   0.002706  -0.009974   8.360030   0.001177   0.008070  26.298200   6.271240  12.463800  22.072800  -0.002434  -0.001636  15.451000  -0.002596   0.002930  27.319700   3.494420   6.728530  29.328700   0.005988   0.003338  19.530900   0.003943  -0.001068  24.272100   2.338120   5.169590  24.377700   0.003903  -0.000660  16.223700   0.002107  -0.001639  27.620000   1.355450   2.588530  41.475900   0.004110  -0.000127  27.623000   0.001931  -0.002001   2.226430   8.355820   8.249340   0.698323   0.053259   9.531510  -1.072240  -1.836720   2.417120  -0.000000   0.000000   0.000000   2.931650   7.447310  -1.641060  -0.254229   2.383090 -13.497800  -0.979229  -3.666770  -1.361150   0.000000   0.000000   0.000000
  0.186223  89.627700  -1.318860  -2.308420  -7.310760  -0.676236   1.435770   2.924760   0.083935   2.872860   5.850700   0.094540   0.396850  -0.019982  -0.004492   0.651957  -0.040479   8.854360  -4.813710   0.336325   2.404190 -76.102300  14.498900   2.930850  -3.274600  -9.207780 -12.167400   7.796440  -6.473450   0.336901  36.726700  26.923000 -54.889900 -31.995700   0.004306   0.004167 -10.996900   0.000197   0.000262 -24.532700   4.459850  -9.670120 -20.381000  -0.005034  -0.004362 -14.266700  -0.004907   0.000458 -27.217000  -0.944894   1.832540 -27.968700   0.000092  -0.004688 -18.627200  -0.002384  -0.003546 -26.857400  -0.932807   1.838450 -26.872400  -0.001583  -0.005390 -17.897000  -0.002734  -0.004112 -28.369000  -0.981064   1.813260 -42.576900  -0.002703   0.010392 -28.356200  -0.002334   0.002940   4.976220  -0.059271   3.937670  72.805900  14.262400  -4.967630  -1.716220  -3.821310  10.474700  -4.969650  -8.605960  -1.535200 -37.932700  24.991600  58.730100  26.727400   0.002712  -0.009981   8.363700   0.001172   0.008082  26.294200   6.278460  12.481900  22.072400  -0.002424  -0.001641  15.450700  -0.002591   0.002936  27.318100   3.501400   6.742420  29.328700   0.005997   0.003330  19.530900   0.003951  -0.001070  24.266400   2.346230   5.189140  24.372800   0.003921  -0.000670  16.223900   0.002115  -0.001641  27.614700   1.361900   2.601200  41.468500   0.004123  -0.000140  27.618000   0.001936  -0.002006   2.224560   8.376740   8.239310   0.695543   0.027821   9.531820  -1.071010  -1.814360   2.417040  -0.000000   0.000000   0.000000   2.955640   7.470900  -1.629060  -0.276701   2.368570 -13.511600  -0.979885  -3.663200  -1.372860   0.000000   0.000000   0.000000
  0.160974  89.627600  -1.326260  -2.306560  -7.334580  -0.660361   1.435750   2.943300   0.077101   2.873210   5.887610   0.080381   0.370119  -0.008199  -0.004481   0.608006  -0.016576   8.897430  -4.807740   0.344068   2.409870 -76.082600  14.503500   2.939800  -3.283550  -9.194130 -12.141600   7.748870  -6.450910   0.336597  36.714400  26.888100 -54.872300 -31.989800   0.004305   0.004175 -10.996900   0.000199   0.000263 -24.507800   4.451700  -9.662370 -20.359900  -0.005034  -0.004360 -14.251900  -0.004902   0.000456 -27.209900  -0.945196   1.841190 -27.937700   0.000096  -0.004685 -18.606500  -0.002383  -0.003544 -26.841500  -0.933113   1.847240 -26.856500  -0.001582  -0.005387 -17.886400  -0.002734  -0.004111 -28.355100  -0.981392   1.821900 -42.556000  -0.002703   0.010394 -28.342300  -0.002335   0.002943   4.975580  -0.047479   3.947020  72.796500  14.267700  -4.967370  -1.704780  -3.831710  10.474500  -4.968800  -8.612320  -1.530800 -37.917200  24.984800  58.724900  26.748000   0.002726  -0.009997   8.373980   0.001167   0.008099  26.289700   6.287610  12.500800  22.072100  -0.002402  -0.001658  15.450500  -0.002578   0.002953  27.316300   3.508370   6.756310  29.328800   0.006024   0.003309  19.531000   0.003970  -0.001075  24.257700   2.354340   5.208700  24.364800   0.003963  -0.000696  16.224200   0.002140  -0.001647  27.605400   1.370300   2.618480  41.455100   0.004156  -0.000173  27.609100   0.001951  -0.002020   2.223440   8.397770   8.224140   0.692763   0.002383   9.532130  -1.069790  -1.791990   2.416920   0.000000   0.000000   0.000000   2.997160   7.506820  -1.611240  -0.316308   2.345200 -13.531200  -0.980878  -3.656550  -1.391750  -0.000000   0.000000   0.000000
  0.141981  89.627500  -1.333630  -2.305280  -7.348900  -0.650159   1.435540   2.958310   0.073418   2.873030   5.917540   0.072523   0.348778   0.001926  -0.004478   0.572920   0.003979   8.922960  -4.801850   0.339410   2.412960 -76.071800  14.513900   2.962650  -3.296810  -9.191150 -12.138600   7.735080  -6.426810   0.338350  36.716500  26.869700 -54.840500 -31.979800   0.004301   0.004187 -10.996800   0.000193   0.000261 -24.487400   4.450900  -9.664050 -20.343100  -0.005030  -0.004352 -14.240200  -0.004902   0.000455 -27.202700  -0.944433   1.839370 -27.906900   0.000101  -0.004681 -18.586000  -0.002380  -0.003542 -26.826300  -0.932339   1.845440 -26.841300  -0.001582  -0.005383 -17.876300  -0.002731  -0.004108 -28.335300  -0.980560   1.820150 -42.526300  -0.002702   0.010397 -28.322500  -0.002333   0.002948   4.975810  -0.049393   3.952610  72.788500  14.252800  -4.968800  -1.694710  -3.838800  10.476400  -4.969710  -8.605300  -1.522320 -37.898500  24.985900  58.725600  26.782400   0.002745  -0.010021   8.391200   0.001168   0.008106  26.291300   6.289780  12.501700  22.074400  -0.002372  -0.001684  15.452100  -0.002558   0.002980  27.316300   3.508220   6.756010  29.328900   0.006069   0.003278  19.531000   0.003995  -0.001083  24.252200   2.350270   5.205540  24.358900   0.004025  -0.000731  16.222500   0.002185  -0.001659  27.596600   1.372570   2.624260  41.442000   0.004206  -0.000221  27.600400   0.001977  -0.002043   2.230430   8.369590   8.215420   0.691184   0.066715   9.531680  -1.078240  -1.812800   2.416840  -0.000000   0.000000   0.000000   3.034280   7.528770  -1.601680  -0.353565   2.327090 -13.538500  -0.981508  -3.649370  -1.408760  -0.000000   0.000000   0.000000
  0.123772  89.627400  -1.342620  -2.304650  -7.361860  -0.645182   1.434940   2.975140   0.071839   2.871960   5.951180   0.069071   0.329724   0.007670  -0.004473   0.541722   0.015643   8.934770  -4.795830   0.328056   2.414290 -76.063600  14.525500   2.988240  -3.311840  -9.187170 -12.138100   7.733430  -6.412040   0.342096  36.722100  26.865700 -54.812000 -31.969900   0.004298   0.004199 -10.996800   0.000187   0.000260 -24.475700   4.450660  -9.674260 -20.333900  -0.005025  -0.004343 -14.233800  -0.004902   0.000455 -27.198700  -0.939087   1.826640 -27.888500   0.000109  -0.004676 -18.573700  -0.002376  -0.003539 -26.817600  -0.926916   1.832840 -26.832400  -0.001582  -0.005377 -17.870400  -0.002727  -0.004104 -28.322500  -0.974737   1.807870 -42.506700  -0.002700   0.010400 -28.309500  -0.002330   0.002954   4.976660  -0.060399   3.955200  72.778900  14.237900  -4.974370  -1.683130  -3.848320  10.480100  -4.972990  -8.594760  -1.512700 -37.873200  24.993900  58.730400  26.825800   0.002771  -0.010051   8.412900   0.001170   0.008114  26.296100   6.290180  12.501800  22.079300  -0.002336  -0.001719  15.455500  -0.002531   0.003016  27.316400   3.507200   6.753950  29.329000   0.006125   0.003238  19.531100   0.004028  -0.001093  24.246800   2.344370   5.199730  24.353100   0.004104  -0.000778  16.219200   0.002241  -0.001674  27.587300   1.372890   2.625420  41.428200   0.004269  -0.000284  27.591200   0.002010  -0.002072   2.239710   8.341380   8.207910   0.689606   0.131047   9.531250  -1.086680  -1.833600   2.416810  -0.000000   0.000000  -0.000000   3.072040   7.545910  -1.594610  -0.391250   2.312260 -13.543500  -0.981615  -3.642130  -1.418590   0.000000   0.000000   0.000000
  0.106188  89.627300  -1.353850  -2.305080  -7.375730  -0.647654   1.433550   2.996000   0.074787   2.869090   5.992980   0.074634   0.315565   0.005358  -0.004457   0.518439   0.010823   8.926400  -4.791290   0.310524   2.408780 -76.056500  14.535400   3.006520  -3.330730  -9.173880 -12.155500   7.771690  -6.420920   0.348280  36.727100  26.872000 -54.806300 -31.964800   0.004300   0.004206 -10.996700   0.000190   0.000262 -24.483200   4.462920  -9.701250 -20.341900  -0.005022  -0.004338 -14.239400  -0.004898   0.000451 -27.203500  -0.920940   1.790040 -27.906100   0.000119  -0.004671 -18.585400  -0.002373  -0.003536 -26.827800  -0.909102   1.796110 -26.840700  -0.001581  -0.005369 -17.875900  -0.002723  -0.004097 -28.325000  -0.955608   1.771870 -42.508800  -0.002698   0.010404 -28.310900  -0.002327   0.002962   4.978580  -0.086865   3.949740  72.765400  14.257800  -4.986230  -1.668060  -3.868810  10.484600  -4.979840  -8.590990  -1.504750 -37.855500  25.016600  58.742400  26.876100   0.002807  -0.010082   8.438040   0.001175   0.008133  26.304300   6.290380  12.497700  22.087100  -0.002300  -0.001761  15.461000  -0.002495   0.003058  27.317900   3.500780   6.741180  29.329000   0.006188   0.003188  19.531100   0.004070  -0.001106  24.240900   2.341140   5.192270  24.346900   0.004200  -0.000838  16.215300   0.002299  -0.001689  27.577800   1.367940   2.616380  41.413700   0.004345  -0.000362  27.581500   0.002047  -0.002106   2.243160   8.374760   8.200130   0.687463   0.064997   9.535420  -1.081880  -1.796840   2.420650  -0.000000   0.000000  -0.000000   3.107990   7.557870  -1.588010  -0.425272   2.303620 -13.550900  -0.981355  -3.636280  -1.418520  -0.000000   0.000000   0.000000
